<svg width="64" height="64" viewBox="0 0 64 64" fill="none" xmlns="http://www.w3.org/2000/svg">
  <rect width="64" height="64" rx="14" fill="#070A12"/>
  <path d="M14 43V20h9c6 0 10 3 10 8 0 3-1 5-4 6 4 1 6 4 6 8 0 5-4 9-11 9H14Zm7-14h2c2 0 3-1 3-3s-1-3-3-3h-2v6Zm0 10h3c3 0 4-1 4-3s-1-3-4-3h-3v6Z" fill="#F7F4FF"/>
  <path d="M40 44V19h7v25h-7Z" fill="#67E8F9"/>
  <path d="M12 54c10-6 21-8 33-5 4 1 8 3 11 5" stroke="#FB7185" stroke-width="4" stroke-linecap="round"/>
  <path d="M11 10c8 4 16 5 24 4 8-2 15-3 22 1" stroke="#86EFAC" stroke-width="4" stroke-linecap="round"/>
</svg>
